<?xml version="1.0" encoding="utf-8"?>
<!-- Generator: Adobe Illustrator 16.0.0, SVG Export Plug-In . SVG Version: 6.00 Build 0)  -->
<!DOCTYPE svg PUBLIC "-//W3C//DTD SVG 1.1//EN" "http://www.w3.org/Graphics/SVG/1.1/DTD/svg11.dtd">
<svg version="1.1" id="Layer_1" xmlns="http://www.w3.org/2000/svg" xmlns:xlink="http://www.w3.org/1999/xlink" x="0px" y="0px"
	 width="500px" height="500px" viewBox="0 0 500 500" enable-background="new 0 0 500 500" xml:space="preserve">
<path fill-rule="evenodd" clip-rule="evenodd" fill="#238D8E" d="M303.666,373.277c-2.024,1.354-4.033,2.732-6.08,4.052
	c-4.527,2.921-9.208,5.573-14.039,7.965c-2.189,1.085-2.208,1.137-1.15,3.383c3.157,6.696,7.396,12.487,13.729,16.581
	c2.814,1.819,4.366,4.485,4.07,7.894c-0.343,3.945-3.49,6.729-7.639,7.054c-4.947,0.386-11.237-3.562-10.33-10.309
	c0.958-7.133-1.936-12.688-7.271-17.182c-0.433-0.365-0.971-0.631-1.328-1.053c-0.342-0.402-0.513-0.948-0.806-1.522
	c-4.695,1.768-9.373,3.532-14.204,4.83c-1.271,0.342-1.529,1.063-1.438,2.286c0.974,12.915,4.599,24.823,13.008,34.979
	c4.078,4.925,4.679,11.129,1.678,16.084c-3.061,5.051-9.38,7.742-15.521,6.323c-6.603-1.526-11.095-5.437-12.738-12.22
	c-0.771-3.185-0.199-6.188,1.298-9.044c6.069-11.577,4.157-22.397-3.009-32.773c-0.915-1.324-1.984-1.509-3.4-1.272
	c-5.692,0.952-11.438,1.34-17.196,1.601c-2.111,0.095-2.217,0.098-2.285,2.253c-0.235,7.388,0.887,14.5,4.586,21.035
	c0.654,1.154,1.276,2.298,1.535,3.629c1.23,6.312-3.98,11.127-10.116,9.214c-6.924-2.159-8.606-9.951-5.44-14.353
	c4.135-5.749,3.786-12.048,0.987-18.313c-0.485-1.087-1.169-2.085-0.435-3.351c-4.18-0.4-8.127-0.737-12.064-1.176
	c-1.411-0.157-2.229,0.132-2.743,1.626c-3.942,11.46-5.792,23.059-2.627,35.043c0.744,2.813,0.691,5.608-0.201,8.377
	c-2.026,6.29-8.107,9.896-14.939,8.871c-9.171-1.377-15.49-10.797-13.194-19.694c0.783-3.035,2.429-5.511,4.978-7.354
	c9.592-6.94,12.916-16.554,12.011-28.005c-0.107-1.362-0.713-1.96-2.012-2.273c-8.553-2.072-16.823-4.985-24.875-8.529
	c-1.776-0.782-1.837-0.757-2.726,1.047c-3.099,6.287-4.874,12.872-4.39,19.954c0.07,1.035,0.149,2.083,0.065,3.113
	c-0.249,3.055-1.71,5.378-4.488,6.733c-2.833,1.382-5.546,0.879-8.009-0.914c-5.632-4.101-5.115-12.787,0.346-15.832
	c5.774-3.22,8.134-8.69,8.634-15.073c0.082-1.033-0.058-2.086,0.047-3.114c0.081-0.799-0.238-1.22-0.872-1.571
	c-4.133-2.293-8.173-4.738-12.054-7.434c-0.903-0.628-1.486-0.426-2.193,0.263c-8.969,8.733-15.937,18.646-18.485,31.186
	c-0.32,1.573-0.744,3.116-1.468,4.571c-3.821,7.679-12.964,9.986-19.959,5.021c-6.22-4.415-8.592-13.064-5.393-19.979
	c1.991-4.302,5.311-6.993,10.025-7.94c12.323-2.473,19.457-10.43,23.137-22.006c0.383-1.205,0.163-2.095-0.87-2.978
	c-4.749-4.057-9.151-8.475-13.225-13.207c-0.928-1.078-1.613-1.228-2.784-0.293c-5.635,4.495-10.289,9.722-12.841,16.591
	c-1.16,3.122-3.154,5.409-6.551,6.026c-5.407,0.982-10.024-3.756-9.409-9.552c0.537-5.061,3.705-8.03,8.829-8.663
	c7.374-0.91,12.029-5.372,14.993-11.921c0.375-0.831,0.184-1.408-0.312-2.063c-2.456-3.238-4.764-6.581-6.879-10.053
	c-0.556-0.913-1.197-0.955-2.143-0.666C74.775,332.463,65,337.388,56.975,345.4c-1.746,1.743-3.189,3.73-4.726,5.646
	c-5.072,6.322-13.787,7.342-19.561,2.101c-4.976-4.517-6.172-10.306-4.208-16.585c1.945-6.222,6.258-9.97,12.846-10.853
	c1.532-0.206,3.027,0.117,4.483,0.505c10.85,2.893,20.118-0.145,28.202-7.525c1.657-1.514,3.129-3.231,4.778-4.952
	c-3.691-7.881-6.715-16.112-9.008-24.601c-0.351-1.301-0.931-1.362-2.021-1.074c-6.401,1.694-12.276,4.389-17.053,9.082
	c-2.063,2.025-4.395,3.329-7.295,3.182c-4.904-0.251-8.152-4.867-7.031-9.942c1.371-6.207,7.584-9.221,12.487-7.271
	c6.159,2.449,11.854,0.783,17.1-2.9c1.011-0.711,1.446-1.435,1.163-2.834c-0.973-4.811-1.638-9.682-1.969-14.583
	c-0.086-1.264-0.46-1.797-1.802-1.926c-12.002-1.162-23.523,0.225-34.393,5.853c-8.251,4.273-17.571,0.418-19.681-8.188
	c-2.818-11.5,7.362-21.81,18.154-19.71c2.272,0.442,4.236,1.524,6.01,3.011c8.782,7.361,18.646,8.373,29.285,5.011
	c1.427-0.45,1.875-1.188,1.913-2.631c0.181-6.709,0.781-13.388,2.031-19.988c0.288-1.521-0.306-2.04-1.631-2.27
	c-6.127-1.062-12.213-1.172-18.211,0.758c-1.353,0.435-2.691,0.822-4.146,0.797c-6.119-0.104-9.702-5.887-7.034-11.396
	c2.768-5.713,10.932-7.65,15.436-2.667c4.273,4.726,9.958,5.786,16.108,5.019c1.354-0.169,1.637-0.998,1.89-2.064
	c0.98-4.137,2.15-8.227,3.622-12.209c0.581-1.571,0.288-2.376-1.081-3.23c-5.311-3.317-10.855-6.125-16.841-7.998
	c-5.902-1.845-11.914-2.749-18.141-2.48c-7.277,0.314-13.055-4.291-14.341-11.111c-0.663-3.514,0.2-6.763,2.003-9.77
	c3.691-6.156,11.336-9.25,18.116-7.374c4.165,1.154,7.157,3.691,8.961,7.63c5.124,11.191,14.21,16.442,26.142,17.414
	c1.151,0.094,2.135,0.131,2.791-1.252c3.325-7.015,7.388-13.605,11.783-19.996c0.1-0.146,0.113-0.352,0.227-0.727
	c-4.569-3.037-9.515-5.207-15.049-5.865c-2.32-0.275-4.419-0.937-6.128-2.6c-3.012-2.931-3.257-7.269-0.537-10.482
	c4.869-5.749,14.505-3.807,16.342,2.824c1.213,4.38,4.275,7.46,8.193,9.729c1.223,0.708,1.937,0.57,2.832-0.56
	c4.231-5.339,8.803-10.379,13.803-15.009c1.159-1.074,0.935-1.742-0.001-2.743c-6.196-6.628-13.31-11.635-22.397-13.564
	c-5.519-1.171-8.891-5.704-8.699-12.001c0.247-8.136,6.462-15.75,14.426-17.66c10.716-2.57,15.579,5.052,15.501,11.82
	c-0.106,9.285,3.4,16.925,11.539,22.003c2.179,1.359,2.204,1.363,4.197-0.099c7.407-5.434,15.234-10.167,23.492-14.194
	c2.009-0.979,2.032-1.029,1.04-2.91c-2.723-5.163-6.183-9.711-11.024-13.101c-0.691-0.483-1.349-1.048-1.908-1.678
	c-2.353-2.651-2.844-6.339-1.284-9.218c1.575-2.904,5.235-4.559,8.703-4.031c5.27,0.801,9.349,5.285,8.266,11.122
	c-1.01,5.441,0.722,10.241,4.181,14.495c0.789,0.971,1.517,1.165,2.664,0.686c4.447-1.855,9.004-3.419,13.658-4.657
	c1.449-0.387,1.695-1.154,1.592-2.436c-0.977-12.089-4.107-23.408-11.758-33.123c-2.505-3.181-3.813-6.764-3.292-10.811
	c0.81-6.293,5.601-10.855,12.066-11.708c8.206-1.083,16.201,4.605,17.925,12.684c0.686,3.217,0.187,6.236-1.419,9.022
	c-5.833,10.121-5.252,20.171,0.19,30.198c1.21,2.229,1.252,2.245,3.687,1.907c8.339-1.156,16.702-1.897,25.133-1.707
	c2.138,0.048,2.104-0.013,1.956-2.257c-0.381-5.83-1.724-11.372-4.749-16.439c-0.333-0.558-0.54-1.206-0.729-1.835
	c-0.952-3.161-0.411-6.027,2.003-8.333c2.447-2.339,5.403-2.545,8.452-1.446c5.685,2.052,8.517,9.261,4.674,14.401
	c-3.249,4.346-3.709,9.377-2.412,14.598c0.307,1.235,0.862,1.84,2.281,1.956c5.553,0.456,11.076,1.214,16.533,2.357
	c1.147,0.241,1.7,0.076,2.1-1.098c3.559-10.458,5.183-21.076,2.7-32.028c-0.554-2.438-0.762-4.849-0.187-7.288
	c1.818-7.712,9.024-12.02,16.69-9.993c8.202,2.168,13.442,10.351,11.886,18.698c-0.649,3.486-2.469,6.297-5.418,8.332
	c-8.716,6.011-12.616,14.467-12.747,24.895c-0.021,1.678,0.489,2.479,2.151,3.001c6.583,2.07,12.931,4.751,19.149,7.745
	c1.835,0.884,1.886,0.861,2.689-0.921c2.438-5.415,3.842-11.047,3.456-17.036c-0.06-0.945-0.077-1.879,0.111-2.82
	c0.729-3.652,3.081-6.229,6.311-6.866c3.075-0.607,6.555,1.008,8.483,3.973c3.085,4.741,1.701,11.127-2.95,13.53
	c-5.25,2.712-7.898,7.347-9.017,13.031c-0.271,1.381,0.126,2.052,1.255,2.733c3.154,1.9,6.25,3.898,9.348,5.89
	c1.01,0.649,1.954,1.398,2.816,2.689c-1.826,0-3.654-0.001-5.481,0c-7.37,0.006-14.729,0.112-22.066,0.984
	c-20.283,2.411-38.89,9.329-55.549,21.104c-28.036,19.817-45.468,46.691-51.154,80.551c-11.064,65.883,31.5,125.567,92.724,140.099
	c12.593,2.989,25.335,4.089,38.248,2.927c0.546-0.049,1.099-0.006,1.647-0.006C303.535,372.935,303.601,373.105,303.666,373.277z"/>
<path fill-rule="evenodd" clip-rule="evenodd" fill="#95CE9A" d="M375.355,364.648c-9.539,5.438-19.42,10.086-29.935,13.357
	c-6.861,2.136-13.88,3.507-20.931,4.773c-1.619,0.292-2.951-0.203-4.09-1.398c-5.079-5.335-10.189-10.641-15.272-15.974
	c-2.399-2.519-4.763-5.074-7.466-7.958c2.35-0.208,4.341-0.583,6.321-0.53c15.333,0.411,30.034-2.509,44.102-8.497
	c10.225-4.352,19.543-10.213,27.987-17.5c11.1-9.58,19.849-20.953,26.311-34.063c4.992-10.131,8.296-20.808,9.908-32.03
	c1.053-7.33,1.397-14.682,0.911-22.023c-1.099-16.535-5.63-32.088-14.148-46.389c-1.933-3.244-3.897-6.469-5.873-9.688
	c-0.436-0.71-0.797-1.156,0.526-0.994c0.354,0.043,0.104-0.594-0.127-0.843c-0.706-0.762-1.442-1.497-2.161-2.248
	c-4.245-4.433-8.487-8.871-12.738-13.3c-0.706-0.736-1.318-1.547-2.58-1.468c-0.856,0.053-1.528-0.667-2.231-1.137
	c-4.003-2.673-7.941-5.451-12.019-8.006c-10.613-6.653-22.246-10.616-34.494-12.994c-7.536-1.463-15.157-1.74-22.781-2.125
	c-0.269-0.014-0.534-0.1-0.824-0.157c-0.07-0.962,0.724-1.318,1.248-1.76c3.982-3.354,7.534-7.152,11.251-10.78
	c3.853-3.762,7.809-7.408,11.951-10.849c0.724-0.602,1.421-1.248,2.354-1.529c2.909,0.783,5.833,1.515,8.724,2.356
	c12.066,3.511,23.915,7.533,34.923,13.783c13.892,7.887,25.771,18.126,35.834,30.44c8.589,10.511,15.371,22.138,20.439,34.77
	c6.467,16.113,9.703,32.843,9.976,50.169c0.078,5.001-0.471,9.965-0.96,14.939c-0.798,8.105-2.523,16.007-4.962,23.747
	c-4.638,14.717-11.749,28.199-20.901,40.591c-7.214,9.768-15.656,18.374-25.156,25.952
	C384.262,358.642,379.736,361.541,375.355,364.648z"/>
<path fill-rule="evenodd" clip-rule="evenodd" fill="#95CE9A" d="M203.533,222.912c2.648-7.867,6.669-15.018,11.772-21.505
	c11.526-14.651,26.229-24.615,44.43-29.039c17.908-4.352,35.433-3.074,52.245,4.688c19.377,8.945,33.088,23.43,41.254,43.149
	c0.358,0.866,0.554,1.798,0.822,2.701c-2.205,1.154-2.54,3.42-3.044,5.463c-1.8,7.292-3.46,14.618-5.178,21.93
	c-0.604,2.569-1.31,5.101-2.646,7.411c-1.142,1.973-1.745,2.283-3.87,1.883c-3.499-0.66-6.999-1.322-10.498-1.984
	c-1.022-0.702-2.143-1.167-3.342-1.489c-6.998-1.877-13.314-5.239-19.41-9.046c-4.559-2.847-8.639-6.427-13.415-8.933
	c-7.205-3.779-14.717-5.022-22.667-2.558c-5.498,1.703-10.325,4.646-14.849,8.059c-10.04,7.574-21.204,12.552-33.501,15.054
	c-1.069-0.191-2.034,0.281-3.048,0.462c-3.093,0.55-4.5-0.201-5.257-3.192c-1.409-5.563-3.15-11.037-4.246-16.687
	c-0.914-4.708-2.024-9.388-3.552-13.948C205.185,224.292,205.029,223.028,203.533,222.912z"/>
<path fill-rule="evenodd" clip-rule="evenodd" fill="#238E8D" d="M375.355,364.648c4.381-3.107,8.906-6.007,13.115-9.364
	c9.5-7.578,17.942-16.185,25.156-25.952c9.152-12.392,16.264-25.874,20.901-40.591c2.438-7.74,4.164-15.642,4.962-23.747
	c0.489-4.974,1.038-9.938,0.96-14.939c-0.272-17.327-3.509-34.056-9.976-50.169c-5.068-12.632-11.851-24.259-20.439-34.77
	c-10.063-12.314-21.942-22.553-35.834-30.44c-11.008-6.25-22.856-10.272-34.923-13.783c-2.891-0.841-5.814-1.573-8.724-2.356
	c2.848-3.863,6.363-7.104,9.779-10.432c3.962-3.859,8.079-7.55,12.32-11.101c1.173-0.131,2.235,0.307,3.297,0.684
	c6.138,2.178,12.209,4.535,18.114,7.279c19.631,9.121,37.256,21.019,51.895,37.166c8.554,9.435,15.766,19.758,21.686,30.996
	c7.164,13.603,12.167,28.007,15.561,42.98c0.915,4.037,2.046,8.06,2.275,12.203c0.241,4.343,0.472,8.646,2.315,12.678
	c-0.626,1.236-0.523,2.569-0.516,3.889c0.047,7.651-0.178,15.28-1.058,22.898c-1.297,11.21-3.953,22.097-7.584,32.741
	c-12.041,35.307-33.871,63.057-64.883,83.666c-0.862,0.572-1.76,1.118-2.703,1.534c-1.776,0.784-2.738,0.504-3.913-1.07
	c-0.449-0.602-0.778-1.292-1.161-1.941C382.438,376.688,378.896,370.668,375.355,364.648z"/>
<path fill-rule="evenodd" clip-rule="evenodd" fill="#95CE9A" d="M467.797,240.991c-1.844-4.032-2.074-8.335-2.315-12.678
	c-0.229-4.144-1.36-8.166-2.275-12.203c-3.394-14.973-8.396-29.377-15.561-42.98c-5.92-11.238-13.132-21.561-21.686-30.996
	c-14.639-16.147-32.264-28.045-51.895-37.166c-5.905-2.744-11.977-5.101-18.114-7.279c-1.062-0.377-2.124-0.815-3.297-0.684
	c3.886-4.649,8.359-8.712,12.79-12.813c1.388-1.285,2.747-2.571,3.972-4.019c3.237-3.826,5.968-4.538,10.514-2.591
	c16.398,7.024,31.659,15.94,45.534,27.221c18.546,15.078,33.442,33.168,45.14,53.958c9.71,17.257,16.221,35.659,19.902,55.1
	c1.177,6.209,1.918,12.47,2.682,18.732c0.058,0.466,0.044,0.943,0.047,1.415c0.023,3.458-0.997,4.708-4.477,4.74
	c-4.251,0.039-8.479,0.427-12.718,0.618C473.228,239.492,470.382,239.63,467.797,240.991z"/>
<path fill-rule="evenodd" clip-rule="evenodd" fill="#DBE5EC" d="M203.533,222.912c1.496,0.117,1.652,1.38,2,2.418
	c1.528,4.561,2.638,9.24,3.552,13.948c1.096,5.65,2.837,11.123,4.246,16.687c0.757,2.991,2.164,3.742,5.257,3.192
	c1.014-0.181,1.979-0.653,3.048-0.463c-1.683,1.188-3.013,2.785-4.739,3.944c-1.115,0.749-1.833,2.146-1.874,3.37
	c-0.099,2.907-1.018,5.808-0.645,8.647c0.419,3.188,0.365,6.352,0.488,9.53c0.059,1.489,0.244,3.006,1.681,3.945
	c0.713,1.854,0.594,3.867,1.191,5.769c1.398,4.449,2.261,9.071,4.009,13.408c1.428,3.542,2.203,7.315,4.669,10.494
	c2.112,2.72,3.842,5.723,6.125,8.372c1.214,1.408,2.141,3.019,3.851,3.921c0.109,0.979,0.556,1.712,1.329,2.378
	c2.866,2.469,6.013,4.501,9.303,6.347c7.498,4.206,15.712,6.129,24.059,7.635c1.508,0.272,3.116-0.024,3.666-1.458
	c1.367-3.558,4.794-5.531,6.437-8.854c0.522-1.058,1.571-1.064,2.271-0.044c1.394,2.037,3.448,2.721,5.724,3.205
	c1.832,0.39,3.669,0.752,5.501,1.128c5.879,1.209,11.197,0.138,16.05-3.353c1.067-0.768,2.096-1.591,3.168-2.354
	c6.88-4.891,12.23-11.061,16.021-18.635c2.156-4.311,3.62-8.89,5.543-13.274c3.356-7.654,4.14-15.745,4.662-23.895
	c0.234-3.649,0.102-7.321-0.499-10.971c-0.416-2.523-1.568-4.381-3.84-5.536c-1.6-0.813-3.203-1.611-4.806-2.415
	c-1.032-0.517-2.018-1.072-2.16-2.392c3.499,0.661,6.999,1.323,10.498,1.983c2.125,0.4,2.729,0.09,3.87-1.883
	c1.337-2.311,2.043-4.842,2.646-7.411c1.718-7.312,3.378-14.638,5.178-21.93c0.504-2.043,0.839-4.31,3.044-5.463
	c2.061,0.042,2.553,1.603,3.097,3.149c0.79,2.25,0.814,4.649,1.032,6.951c0.699,7.414,1.192,14.89,0.614,22.313
	c-0.847,10.889-2.761,21.622-6.867,31.828c-2.081,5.172-4.689,10.073-8.402,14.3c-0.684,0.779-1.371,1.632-2.234,2.16
	c-2.533,1.552-4.112,3.794-5.287,6.451c-3.061,6.919-6.951,13.331-11.602,19.318c-3.726,4.796-8.038,8.931-12.74,12.74
	c-3.91,3.168-8.058,5.913-12.646,7.958c-4.486,2.001-9.14,3.358-14.071,3.922c-2.729,0.312-5.437,0.568-8.16,0.454
	c-6.332-0.268-12.446-1.446-18.358-3.918c-9.165-3.83-16.745-9.799-23.336-17.02c-6.842-7.496-12.324-15.927-15.797-25.556
	c-0.581-1.612-1.459-3.032-2.744-4.231c-7.124-6.656-11.014-15.117-13.673-24.318c-1.727-5.974-2.797-12.071-3.812-18.176
	c-0.93-5.593-1.028-11.303-0.552-16.922c0.404-4.774,0.303-9.587,1.049-14.329c0.248-1.573,0.657-3.12,0.992-4.678
	C200.903,223.704,201.819,222.811,203.533,222.912z M214.29,296.624c0.026,0.07,0.04,0.148,0.082,0.206
	c0.024,0.033,0.096,0.03,0.146,0.044c-0.084-0.074-0.17-0.149-0.254-0.224c-0.006-0.753,0.128-1.54-0.041-2.254
	c-1.393-5.858-2.117-11.832-3.061-17.765c-0.768-4.826-1.154-9.715,0.541-14.469c0.452-1.266,0.167-2.368-0.178-3.567
	c-2.189-7.589-4.419-15.164-5.87-22.949c-0.459-2.464-0.933-5.029-2.627-7.47c-0.267,0.879-0.535,1.405-0.573,1.946
	c-0.409,5.815-0.766,11.633-1.17,17.448c-0.263,3.782,0.382,7.517,0.541,11.276c0.103,2.437,0.322,4.887,0.739,7.288
	c1.243,7.156,3.049,14.167,6.116,20.789C210.254,290.322,211.752,293.776,214.29,296.624z M340.73,299.704
	c4.203-5.033,7.891-10.336,10.112-16.538c3.434-9.582,4.866-19.522,5.156-29.632c0.184-6.403,0.421-12.83-0.541-19.208
	c-0.299-1.978-0.469-3.995-1.57-6.394c-0.697,2.504-1.321,4.458-1.782,6.451c-2.015,8.705-3.496,17.551-6.897,25.885
	c-0.446,1.096-0.43,2.105-0.167,3.281c0.573,2.568,1.063,5.201,0.725,7.844c-0.573,4.474-1.279,8.929-1.945,13.391
	C343.071,289.798,342.096,294.765,340.73,299.704z"/>
<path fill-rule="evenodd" clip-rule="evenodd" fill="#E1EAEF" d="M216.547,288.132c-1.437-0.939-1.622-2.456-1.681-3.945
	c-0.123-3.179-0.068-6.342-0.488-9.53c-0.373-2.84,0.546-5.74,0.645-8.647c0.041-1.225,0.758-2.621,1.874-3.37
	c1.726-1.159,3.056-2.757,4.739-3.944c12.297-2.501,23.461-7.479,33.501-15.053c4.523-3.414,9.351-6.356,14.849-8.059
	c7.95-2.464,15.462-1.221,22.667,2.558c4.776,2.506,8.856,6.085,13.415,8.933c6.096,3.808,12.412,7.169,19.41,9.046
	c1.199,0.322,2.319,0.787,3.342,1.489c0.143,1.32,1.128,1.876,2.16,2.393c1.603,0.804,3.206,1.603,4.806,2.415
	c2.271,1.155,3.424,3.013,3.84,5.536c0.601,3.649,0.733,7.321,0.499,10.971c-0.522,8.149-1.306,16.24-4.662,23.895
	c-1.923,4.385-3.387,8.964-5.543,13.274c-3.79,7.574-9.141,13.744-16.021,18.635c-1.072,0.763-2.101,1.586-3.168,2.354
	c-4.853,3.49-10.171,4.562-16.05,3.353c-1.832-0.376-3.669-0.738-5.501-1.128c-2.275-0.484-4.33-1.168-5.724-3.205
	c-0.699-1.021-1.748-1.014-2.271,0.044c-1.643,3.322-5.069,5.296-6.437,8.854c-0.55,1.434-2.158,1.73-3.666,1.458
	c-8.347-1.506-16.561-3.429-24.059-7.635c-3.291-1.846-6.437-3.878-9.303-6.347c-0.773-0.666-1.22-1.398-1.329-2.378
	c1.079,0.104,1.939,0.642,2.747,1.324c2.333,1.971,5,3.354,7.907,4.228c4.849,1.456,9.8,2.519,14.759,3.522
	c2.563,0.518,5.092,1.183,7.764,1.184c1.916,0.001,3.238-0.623,4.21-2.227c1.704-2.812,3.692-5.436,5.354-8.285
	c0.747-1.279,1.308-2.717,2.414-3.794c1.426-1.387,2.744-1.521,4.191-0.166c3.549,3.319,7.689,5.687,12.067,7.688
	c5.483,2.507,10.819,2.013,15.832-1.152c2.525-1.593,5.052-3.359,7.078-5.518c1.71-1.824,4.168-3.41,4.14-6.443
	c0.458-0.244,0.557-0.667,0.569-1.135c0.964-0.01,1.614-0.577,2.035-1.336c0.91-1.639,1.771-3.31,2.588-4.999
	c1.56-3.229,2.458-6.72,3.862-10.004c2.667-6.239,3.518-12.816,3.995-19.492c0.304-4.251-0.67-8.453-0.522-12.676
	c0.151-4.343-2.268-7.178-6.34-8.088c-5.516-1.232-10.468-3.762-15.329-6.438c-8.606-4.738-17.362-8.977-27.123-10.836
	c-1.469-0.279-2.559-0.197-3.65,0.673c-1.283,1.024-2.484,1.289-4.137,0.503c-2.563-1.219-5.52-1.592-8.238-1.437
	c-4.087,0.232-8.128,1.18-12.097,2.45c-4.511,1.444-8.734,3.497-13.073,5.317c-6.599,2.769-13.375,5.119-19.672,8.582
	c-1.318,0.726-2.672,1.376-4.122,1.85c-1.732,0.567-3.322,1.546-4.318,3.068c-1.472,2.247-2.981,4.594-1.602,7.495
	c-0.001,3.781-0.002,7.562-0.002,11.342C216.357,285.864,216.556,287.039,216.547,288.132z"/>
<path fill-rule="evenodd" clip-rule="evenodd" fill="#E5ECF1" d="M324.855,320.456c0.028,3.033-2.43,4.619-4.14,6.443
	c-2.026,2.158-4.553,3.925-7.078,5.518c-5.013,3.165-10.349,3.659-15.832,1.152c-4.378-2.001-8.519-4.368-12.067-7.688
	c-1.447-1.354-2.766-1.221-4.191,0.166c-1.106,1.077-1.667,2.515-2.414,3.794c-1.661,2.85-3.649,5.474-5.354,8.285
	c-0.972,1.604-2.294,2.228-4.21,2.227c-2.672-0.001-5.2-0.666-7.764-1.184c-4.959-1.004-9.91-2.066-14.759-3.522
	c-2.906-0.873-5.574-2.257-7.907-4.228c-0.808-0.683-1.668-1.22-2.747-1.324c-1.71-0.902-2.636-2.513-3.851-3.921
	c-2.283-2.649-4.013-5.652-6.125-8.372c-2.466-3.179-3.242-6.952-4.669-10.494c-1.749-4.337-2.611-8.959-4.009-13.408
	c-0.597-1.901-0.478-3.915-1.191-5.769c0.009-1.093-0.189-2.268,1.133-2.835c0.88,3.02,1.642,6.063,1.694,9.229
	c0.021,1.267-0.032,2.529,1.704,2.683c0.001,0.755,0.003,1.509,0.004,2.265c-1.012,1.492,0.29,1.444,1.132,1.702
	c0.002,0.564,0.005,1.13,0.007,1.695c0.719,4.108,1.751,8.063,4.519,11.392c1.612,1.939,3.005,4.069,3.484,6.643
	c0.13,0.698,0.603,1.215,1.181,1.524c1.199,0.641,2.026,1.682,3.01,2.556c2.762,2.455,5.716,4.57,9.35,5.62
	c7.9,2.282,15.926,3.533,24.172,3.516c2.112-0.003,3.406-0.944,4.456-2.444c1.888-2.696,3.672-5.464,5.479-8.216
	c2.604-3.969,4.616-8.192,5.396-12.922c0.138-0.835,0.113-1.698,0.295-2.521c0.154-0.696,0.661-1.168,1.445-1.069
	c0.761,0.098,1.371,0.645,1.037,1.341c-0.76,1.582,0.001,3.054,0.354,4.405c1.061,4.044,2.717,7.765,6.447,10.287
	c1.867,1.264,3.919,2.267,5.633,3.742c2.263,1.946,4.862,3.147,7.684,4.064c2.257,0.734,4.354,0.629,6.194-0.73
	c3.173-2.341,6.663-4.29,9.325-7.285C322.576,321.773,323.592,320.945,324.855,320.456z"/>
<path fill-rule="evenodd" clip-rule="evenodd" fill="#96D09D" d="M340.73,299.704c1.365-4.939,2.341-9.906,3.09-14.92
	c0.666-4.462,1.372-8.917,1.945-13.391c0.339-2.643-0.151-5.275-0.725-7.844c-0.263-1.176-0.279-2.186,0.167-3.281
	c3.401-8.334,4.883-17.18,6.897-25.885c0.461-1.993,1.085-3.947,1.782-6.451c1.102,2.399,1.271,4.417,1.57,6.394
	c0.962,6.378,0.725,12.804,0.541,19.208c-0.29,10.109-1.723,20.05-5.156,29.632C348.621,289.368,344.934,294.671,340.73,299.704z"/>
<path fill-rule="evenodd" clip-rule="evenodd" fill="#96D09E" d="M214.29,296.624c-2.537-2.848-4.036-6.302-5.609-9.699
	c-3.067-6.622-4.873-13.633-6.116-20.789c-0.417-2.401-0.637-4.852-0.739-7.288c-0.158-3.76-0.804-7.494-0.541-11.276
	c0.404-5.815,0.761-11.633,1.17-17.448c0.038-0.542,0.306-1.067,0.573-1.946c1.694,2.441,2.168,5.006,2.627,7.47
	c1.451,7.786,3.681,15.36,5.87,22.949c0.345,1.199,0.63,2.302,0.178,3.567c-1.695,4.754-1.309,9.643-0.541,14.469
	c0.943,5.933,1.668,11.906,3.061,17.765c0.169,0.714,0.035,1.501,0.041,2.254L214.29,296.624z"/>
<path fill-rule="evenodd" clip-rule="evenodd" fill="#96D09E" d="M214.263,296.65c0.084,0.074,0.17,0.149,0.254,0.224
	c-0.05-0.014-0.122-0.011-0.146-0.044c-0.042-0.058-0.056-0.136-0.082-0.206L214.263,296.65z"/>
<path fill-rule="evenodd" clip-rule="evenodd" fill="#EDF3F5" d="M221.079,297.209c-1.736-0.153-1.683-1.416-1.704-2.683
	c-0.053-3.167-0.814-6.21-1.694-9.229c0-3.78,0.001-7.561,0.002-11.342c1.083-0.463,1.339-1.542,1.771-2.46
	c1.019-2.163,2.644-3.655,4.844-4.513c3.945-1.538,7.863-3.158,11.867-4.522c6.078-2.069,12.021-4.446,17.687-7.459
	c5.375-2.857,11.074-4.756,17.025-5.827c3.801-0.683,7.372-0.273,9.505,3.712c0.428,0.801,1.276,1.376,1.932,2.055
	c0.906,0.938,1.831,1.052,3.036,0.401c4.978-2.693,10.369-3.162,15.796-2.179c4.815,0.872,9.412,2.579,13.835,4.769
	c4.811,2.381,9.719,4.571,14.617,6.769c4.904,2.199,5.561,2.937,6.506,8.167c0.133,0.736,0.123,1.509,0.083,2.26
	c-0.193,3.659-0.214,7.343-0.286,10.984c-0.083,4.177-1.664,8.066-1.509,12.203c0.013,0.343-0.229,0.719-0.417,1.041
	c-1.264,2.177-2.55,4.314-3.233,6.797c-0.281,1.023-1.241,1.852-1.349,3.048c-0.201,2.214-1.14,4.144-2.342,5.984
	c-0.819,1.254-1.701,2.518-1.626,4.137c-0.013,0.468-0.111,0.891-0.569,1.135c-1.264,0.489-2.279,1.317-3.17,2.317
	c-2.662,2.995-6.152,4.944-9.325,7.285c-1.841,1.359-3.938,1.465-6.194,0.73c-2.821-0.917-5.421-2.118-7.684-4.064
	c-1.714-1.476-3.766-2.479-5.633-3.742c-3.73-2.522-5.387-6.243-6.447-10.287c-0.353-1.352-1.113-2.823-0.354-4.405
	c0.334-0.696-0.276-1.243-1.037-1.341c-0.784-0.099-1.291,0.373-1.445,1.069c-0.182,0.822-0.157,1.686-0.295,2.521
	c-0.78,4.729-2.792,8.953-5.396,12.922c-1.808,2.752-3.592,5.52-5.479,8.216c-1.05,1.5-2.344,2.441-4.456,2.444
	c-8.246,0.018-16.272-1.233-24.172-3.516c-3.634-1.05-6.588-3.165-9.35-5.62c-0.984-0.874-1.812-1.915-3.01-2.556
	c-0.579-0.31-1.051-0.826-1.181-1.524c-0.479-2.573-1.872-4.703-3.484-6.643c-2.768-3.328-3.8-7.283-4.519-11.392
	c1.18-0.108,1.922,0.392,2.445,1.48c2.418,5.018,5.793,9.449,8.732,14.149c0.511,0.817,1.135,1.495,1.795,2.167
	c0.549,0.561,1.164,0.955,1.987,0.916c4.586-0.218,9.238,0.634,13.745-0.95c1.042-0.366,2.32-0.75,3.293-0.462
	c1.601,0.476,3.01,0.116,4.417-0.326c3.009-0.947,6.065-1.194,9.195-1.117c2.071,0.051,3.02-0.751,3.105-2.793
	c0.204-4.886,0.921-9.693,1.721-14.507c1.021-6.127,2.378-12.155,4.622-17.96c1.738-4.501,2.262-9.08,1.043-13.813
	c-0.914-3.551-3.034-6.453-5-9.428c-0.757-1.146-2.059-1.536-3.467-1.599c-2.771-0.124-5.489,0.289-8.024,1.281
	c-6.946,2.723-13.541,6.231-20.081,9.781c-4.141,2.247-8.127,4.675-12.688,6.072c-3.677,1.127-5.946,3.749-6.851,7.59
	c-0.584,2.48-0.556,5.024-1.1,7.505C220.653,292.949,220.116,295.09,221.079,297.209z M332.769,284.995
	c-0.55-3.688-1.601-6.925-3.553-9.934c-1.722-2.654-3.328-5.109-7.029-4.591c-0.254,0.036-0.533-0.193-0.81-0.223
	c-4.312-0.452-8.428-1.854-12.684-2.585c-3.435-0.59-4.706-0.014-6.328,3.06c-0.615,1.166-1.062,2.493-1.918,3.448
	c-2.432,2.71-2.156,5.5-0.473,8.325c0.642,1.077,1.028,2.184,1.351,3.359c1.969,7.166,3.791,14.373,6.514,21.31
	c0.791,2.014,1.576,4.093,1.64,6.253c0.048,1.628,0.408,3.17,0.669,4.736c0.327,1.964,1.854,3.006,3.515,3.742
	c1.672,0.741,2.381-0.833,3.191-1.725c1.638-1.806,2.897-3.983,4.656-5.646c3.993-3.78,6.692-8.384,8.952-13.277
	c1.55-3.355,2.468-6.912,2.324-10.661C332.713,288.65,331.646,286.725,332.769,284.995z"/>
<path fill-rule="evenodd" clip-rule="evenodd" fill="#E5ECF1" d="M325.425,319.321c-0.075-1.619,0.807-2.883,1.626-4.137
	c1.202-1.841,2.141-3.771,2.342-5.984c0.107-1.196,1.067-2.024,1.349-3.048c0.684-2.482,1.97-4.62,3.233-6.797
	c0.188-0.322,0.43-0.698,0.417-1.041c-0.155-4.137,1.426-8.026,1.509-12.203c0.072-3.642,0.093-7.325,0.286-10.984
	c0.04-0.751,0.05-1.523-0.083-2.26c-0.945-5.23-1.602-5.968-6.506-8.167c-4.898-2.197-9.807-4.388-14.617-6.769
	c-4.423-2.189-9.02-3.896-13.835-4.769c-5.427-0.983-10.818-0.515-15.796,2.179c-1.205,0.65-2.13,0.536-3.036-0.401
	c-0.655-0.679-1.504-1.254-1.932-2.055c-2.133-3.985-5.704-4.395-9.505-3.712c-5.951,1.071-11.65,2.97-17.025,5.827
	c-5.667,3.013-11.609,5.39-17.687,7.459c-4.004,1.364-7.922,2.984-11.867,4.522c-2.2,0.857-3.825,2.35-4.844,4.513
	c-0.432,0.918-0.688,1.997-1.771,2.46c-1.379-2.901,0.13-5.248,1.602-7.495c0.996-1.522,2.586-2.501,4.318-3.068
	c1.45-0.474,2.804-1.124,4.122-1.85c6.297-3.463,13.073-5.813,19.672-8.582c4.338-1.82,8.562-3.873,13.073-5.317
	c3.969-1.27,8.01-2.217,12.097-2.45c2.719-0.155,5.676,0.218,8.238,1.437c1.652,0.785,2.854,0.521,4.137-0.503
	c1.092-0.871,2.182-0.952,3.65-0.673c9.761,1.859,18.517,6.098,27.123,10.836c4.861,2.676,9.813,5.205,15.329,6.438
	c4.072,0.91,6.491,3.745,6.34,8.088c-0.147,4.223,0.826,8.425,0.522,12.676c-0.478,6.676-1.328,13.253-3.995,19.492
	c-1.404,3.284-2.303,6.775-3.862,10.004c-0.817,1.689-1.678,3.36-2.588,4.999C327.039,318.744,326.389,319.312,325.425,319.321z"/>
<path fill-rule="evenodd" clip-rule="evenodd" fill="#F2F8FA" d="M221.079,297.209c-0.962-2.119-0.425-4.26,0.034-6.35
	c0.544-2.48,0.516-5.024,1.1-7.505c0.904-3.841,3.173-6.463,6.851-7.59c4.561-1.397,8.547-3.825,12.688-6.072
	c6.541-3.55,13.135-7.059,20.081-9.781c2.535-0.992,5.253-1.405,8.024-1.281c1.408,0.063,2.71,0.453,3.467,1.599
	c1.966,2.975,4.086,5.877,5,9.428c1.219,4.732,0.695,9.312-1.043,13.813c-2.244,5.805-3.601,11.833-4.622,17.96
	c-0.8,4.813-1.517,9.621-1.721,14.507c-0.086,2.042-1.034,2.844-3.105,2.793c-3.13-0.077-6.187,0.17-9.195,1.117
	c-1.407,0.442-2.816,0.802-4.417,0.326c-0.973-0.288-2.251,0.096-3.293,0.462c-4.507,1.584-9.158,0.732-13.745,0.95
	c-0.824,0.039-1.438-0.355-1.987-0.916c-0.66-0.672-1.284-1.35-1.795-2.167c-2.939-4.7-6.314-9.132-8.732-14.149
	c-0.523-1.089-1.266-1.589-2.445-1.48c-0.002-0.565-0.004-1.131-0.007-1.695c0.002-0.819-0.378-1.386-1.132-1.702
	C221.082,298.718,221.08,297.964,221.079,297.209z M224.453,292.253c-0.065,5.329,1.49,9.52,4.935,12.971
	c1.321,1.323,2.847,1.69,4.61,1.017c1.492-0.571,3.031-1.038,4.477-1.709c2.823-1.307,5.992-1.756,8.667-3.373
	c5.853-3.54,12.015-6.178,18.903-6.761c2.218-0.189,3.384-1.341,3.889-3.42c0.885-3.642,1.812-7.273,2.747-10.904
	c1.025-3.98,0.979-7.942-0.107-11.9c-0.858-3.131-0.997-3.244-4.193-3.29c-0.472-0.007-0.978,0.097-1.41-0.037
	c-2.603-0.801-5.045-0.029-7.343,0.966c-2.758,1.194-5.49,2.492-7.994,4.204c-7.304,4.996-14.633,9.938-22.917,13.26
	c-1.579,0.634-2.714,1.851-3.208,3.682C224.992,288.868,224.206,290.698,224.453,292.253z"/>
<path fill-rule="evenodd" clip-rule="evenodd" fill="#ECF2F5" d="M221.083,299.474c0.754,0.316,1.134,0.883,1.132,1.702
	C221.373,300.918,220.071,300.966,221.083,299.474z"/>
<path fill-rule="evenodd" clip-rule="evenodd" fill="#F3FAFA" d="M332.769,284.995c-1.122,1.729-0.056,3.655,0.018,5.592
	c0.144,3.749-0.774,7.306-2.324,10.661c-2.26,4.894-4.959,9.497-8.952,13.277c-1.759,1.663-3.019,3.841-4.656,5.646
	c-0.811,0.892-1.52,2.466-3.191,1.725c-1.661-0.736-3.188-1.778-3.515-3.742c-0.261-1.566-0.621-3.108-0.669-4.736
	c-0.063-2.16-0.849-4.239-1.64-6.253c-2.723-6.937-4.545-14.144-6.514-21.31c-0.322-1.176-0.709-2.282-1.351-3.359
	c-1.684-2.825-1.959-5.615,0.473-8.325c0.856-0.955,1.303-2.282,1.918-3.448c1.622-3.073,2.894-3.649,6.328-3.06
	c4.256,0.73,8.372,2.133,12.684,2.585c0.276,0.029,0.556,0.259,0.81,0.223c3.701-0.519,5.308,1.937,7.029,4.591
	C331.168,278.07,332.219,281.308,332.769,284.995z"/>
<path fill-rule="evenodd" clip-rule="evenodd" fill="#F6FBFB" d="M224.453,292.253c-0.247-1.555,0.54-3.385,1.056-5.296
	c0.493-1.831,1.628-3.048,3.208-3.682c8.284-3.321,15.613-8.264,22.917-13.26c2.504-1.712,5.236-3.01,7.994-4.204
	c2.298-0.995,4.74-1.767,7.343-0.966c0.433,0.134,0.938,0.03,1.41,0.037c3.196,0.046,3.335,0.159,4.193,3.29
	c1.086,3.958,1.133,7.92,0.107,11.9c-0.936,3.631-1.862,7.263-2.747,10.904c-0.505,2.079-1.671,3.23-3.889,3.42
	c-6.889,0.583-13.051,3.221-18.903,6.761c-2.675,1.617-5.844,2.066-8.667,3.373c-1.446,0.671-2.985,1.138-4.477,1.709
	c-1.764,0.674-3.289,0.307-4.61-1.017C225.942,301.772,224.387,297.582,224.453,292.253z"/>
</svg>
